# xmcd CD database file
#
# Track frame offsets:
#	150
#	24712
#	43392
#
# Disc length: 903 seconds
#
# Revision: 9
# Processed by: cddbd v1.5PL3 Copyright (c) Steve Scherf et al.
# Submitted via: CDex 1.50beta8a
#
DISCID=24038503
DTITLE=Mr.Children - 抱きしめたい
DYEAR=1992
DGENRE=JPop
TTITLE0=抱きしめたい
TTITLE1=君の事以外は何も考えられない
TTITLE2=抱きしめたい - Instrumental Version -
EXTD=YEAR: 1992
EXTT0=
EXTT1=
EXTT2=
PLAYORDER=
